<mxfile host="app.diagrams.net" modified="2021-12-21T14:24:40.652Z" agent="5.0 (Windows NT 10.0; Win64; x64) AppleWebKit/537.36 (KHTML, like Gecko) Chrome/96.0.4664.110 Safari/537.36 Edg/96.0.1054.62" etag="O6VhAdGdeBScApQ-9PAD" version="16.0.0" type="github">
  <diagram id="X2y8TrS7YO_sopiGwtv2" name="第 1 页">
    <mxGraphModel dx="1324" dy="1885" grid="1" gridSize="10" guides="1" tooltips="1" connect="1" arrows="1" fold="1" page="1" pageScale="1" pageWidth="827" pageHeight="1169" math="0" shadow="0">
      <root>
        <mxCell id="0" />
        <mxCell id="1" parent="0" />
        <mxCell id="Ds2AMG7Ot5EiUc6jdNnv-1" value="&lt;font style=&quot;font-size: 20px&quot;&gt;main&lt;/font&gt;" style="rounded=0;whiteSpace=wrap;html=1;" parent="1" vertex="1">
          <mxGeometry x="220" y="-914" width="200" height="40" as="geometry" />
        </mxCell>
        <mxCell id="Ds2AMG7Ot5EiUc6jdNnv-2" value="&lt;span style=&quot;font-size: 20px&quot;&gt;返回地址&lt;/span&gt;" style="rounded=0;whiteSpace=wrap;html=1;" parent="1" vertex="1">
          <mxGeometry x="220" y="-874" width="200" height="40" as="geometry" />
        </mxCell>
        <mxCell id="Ds2AMG7Ot5EiUc6jdNnv-3" value="&lt;span style=&quot;font-size: 20px&quot;&gt;ebp的返回地址&lt;/span&gt;" style="rounded=0;whiteSpace=wrap;html=1;" parent="1" vertex="1">
          <mxGeometry x="220" y="-834" width="200" height="40" as="geometry" />
        </mxCell>
        <mxCell id="Ds2AMG7Ot5EiUc6jdNnv-4" value="&lt;font style=&quot;font-size: 20px&quot;&gt;buff[44]&lt;/font&gt;" style="rounded=0;whiteSpace=wrap;html=1;" parent="1" vertex="1">
          <mxGeometry x="220" y="-794" width="200" height="110" as="geometry" />
        </mxCell>
        <mxCell id="Ds2AMG7Ot5EiUc6jdNnv-5" value="" style="shape=curlyBracket;whiteSpace=wrap;html=1;rounded=1;fontSize=20;" parent="1" vertex="1">
          <mxGeometry x="200" y="-834" width="20" height="150" as="geometry" />
        </mxCell>
        <mxCell id="Ds2AMG7Ot5EiUc6jdNnv-7" value="&lt;span&gt;verify_password&lt;/span&gt;" style="text;html=1;align=center;verticalAlign=middle;resizable=0;points=[];autosize=1;strokeColor=none;fillColor=none;fontSize=20;horizontal=0;" parent="1" vertex="1">
          <mxGeometry x="110" y="-774" width="160" height="30" as="geometry" />
        </mxCell>
        <mxCell id="Ds2AMG7Ot5EiUc6jdNnv-9" value="填充字符" style="text;html=1;align=center;verticalAlign=middle;resizable=0;points=[];autosize=1;strokeColor=none;fillColor=none;fontSize=20;" parent="1" vertex="1">
          <mxGeometry x="420" y="-714" width="100" height="30" as="geometry" />
        </mxCell>
        <mxCell id="Ds2AMG7Ot5EiUc6jdNnv-11" value="填充字符" style="text;html=1;align=center;verticalAlign=middle;resizable=0;points=[];autosize=1;strokeColor=none;fillColor=none;fontSize=20;" parent="1" vertex="1">
          <mxGeometry x="420" y="-744" width="100" height="30" as="geometry" />
        </mxCell>
        <mxCell id="Ds2AMG7Ot5EiUc6jdNnv-12" value="填充字符" style="text;html=1;align=center;verticalAlign=middle;resizable=0;points=[];autosize=1;strokeColor=none;fillColor=none;fontSize=20;" parent="1" vertex="1">
          <mxGeometry x="420" y="-774" width="100" height="30" as="geometry" />
        </mxCell>
        <mxCell id="Ds2AMG7Ot5EiUc6jdNnv-13" value="填充字符" style="text;html=1;align=center;verticalAlign=middle;resizable=0;points=[];autosize=1;strokeColor=none;fillColor=none;fontSize=20;" parent="1" vertex="1">
          <mxGeometry x="420" y="-804" width="100" height="30" as="geometry" />
        </mxCell>
        <mxCell id="Ds2AMG7Ot5EiUc6jdNnv-14" value="填充字符" style="text;html=1;align=center;verticalAlign=middle;resizable=0;points=[];autosize=1;strokeColor=none;fillColor=none;fontSize=20;" parent="1" vertex="1">
          <mxGeometry x="420" y="-834" width="100" height="30" as="geometry" />
        </mxCell>
        <mxCell id="Ds2AMG7Ot5EiUc6jdNnv-15" value="&lt;p&gt;&lt;span style=&quot;color: rgb(31 , 9 , 9) ; background-color: rgb(243 , 242 , 238)&quot;&gt;&lt;font style=&quot;font-size: 15px&quot; face=&quot;Verdana&quot;&gt;0x77E23D68&lt;/font&gt;&lt;/span&gt;&lt;/p&gt;" style="text;html=1;align=left;verticalAlign=middle;resizable=0;points=[];autosize=1;strokeColor=none;fillColor=none;fontSize=20;" parent="1" vertex="1">
          <mxGeometry x="430" y="-889" width="110" height="70" as="geometry" />
        </mxCell>
        <mxCell id="Ds2AMG7Ot5EiUc6jdNnv-18" value="0000" style="rounded=0;whiteSpace=wrap;html=1;fontFamily=Helvetica;fontSize=15;" parent="1" vertex="1">
          <mxGeometry x="570" y="-1150" width="160" height="40" as="geometry" />
        </mxCell>
        <mxCell id="Ds2AMG7Ot5EiUc6jdNnv-21" value="bupt&lt;span style=&quot;color: rgba(0 , 0 , 0 , 0) ; font-family: monospace ; font-size: 0px&quot;&gt;%3CmxGraphModel%3E%3Croot%3E%3CmxCell%20id%3D%220%22%2F%3E%3CmxCell%20id%3D%221%22%20parent%3D%220%22%2F%3E%3CmxCell%20id%3D%222%22%20value%3D%220000%22%20style%3D%22rounded%3D0%3BwhiteSpace%3Dwrap%3Bhtml%3D1%3BfontFamily%3DHelvetica%3BfontSize%3D15%3B%22%20vertex%3D%221%22%20parent%3D%221%22%3E%3CmxGeometry%20x%3D%22570%22%20y%3D%22240%22%20width%3D%22160%22%20height%3D%2240%22%20as%3D%22geometry%22%2F%3E%3C%2FmxCell%3E%3C%2Froot%3E%3C%2FmxGraphModel%3E&lt;/span&gt;" style="rounded=0;whiteSpace=wrap;html=1;fontFamily=Helvetica;fontSize=15;" parent="1" vertex="1">
          <mxGeometry x="570" y="-1110" width="160" height="40" as="geometry" />
        </mxCell>
        <mxCell id="Ds2AMG7Ot5EiUc6jdNnv-22" value="参数4：&lt;span style=&quot;color: rgb(0 , 0 , 0) ; font-family: &amp;#34;helvetica&amp;#34; ; font-size: 15px ; font-style: normal ; font-weight: 400 ; letter-spacing: normal ; text-align: center ; text-indent: 0px ; text-transform: none ; word-spacing: 0px ; background-color: rgb(248 , 249 , 250) ; display: inline ; float: none&quot;&gt;0000&lt;/span&gt;&lt;br&gt;" style="rounded=0;whiteSpace=wrap;html=1;fontFamily=Helvetica;fontSize=15;" parent="1" vertex="1">
          <mxGeometry x="570" y="-1070" width="160" height="40" as="geometry" />
        </mxCell>
        <mxCell id="Ds2AMG7Ot5EiUc6jdNnv-26" value="参数3：消息框内容" style="rounded=0;whiteSpace=wrap;html=1;fontFamily=Helvetica;fontSize=15;" parent="1" vertex="1">
          <mxGeometry x="570" y="-1030" width="160" height="40" as="geometry" />
        </mxCell>
        <mxCell id="Ds2AMG7Ot5EiUc6jdNnv-27" value="参数2：消息框标题" style="rounded=0;whiteSpace=wrap;html=1;fontFamily=Helvetica;fontSize=15;" parent="1" vertex="1">
          <mxGeometry x="570" y="-995" width="160" height="40" as="geometry" />
        </mxCell>
        <mxCell id="Ds2AMG7Ot5EiUc6jdNnv-28" value="参数1：0000" style="rounded=0;whiteSpace=wrap;html=1;fontFamily=Helvetica;fontSize=15;" parent="1" vertex="1">
          <mxGeometry x="570" y="-955" width="160" height="40" as="geometry" />
        </mxCell>
        <mxCell id="Ds2AMG7Ot5EiUc6jdNnv-29" value="返回值：Exit()" style="rounded=0;whiteSpace=wrap;html=1;fontFamily=Helvetica;fontSize=15;" parent="1" vertex="1">
          <mxGeometry x="570" y="-915" width="160" height="40" as="geometry" />
        </mxCell>
        <mxCell id="Ds2AMG7Ot5EiUc6jdNnv-31" value="&lt;span style=&quot;color: rgb(31 , 9 , 9) ; font-family: &amp;#34;verdana&amp;#34; ; text-align: left ; background-color: rgb(218 , 218 , 218)&quot;&gt;0x0012FB3C&lt;/span&gt;" style="text;html=1;align=center;verticalAlign=middle;resizable=0;points=[];autosize=1;strokeColor=none;fillColor=none;fontSize=15;fontFamily=Helvetica;" parent="1" vertex="1">
          <mxGeometry x="461" y="-1100" width="110" height="20" as="geometry" />
        </mxCell>
        <mxCell id="Ds2AMG7Ot5EiUc6jdNnv-32" value="&lt;p&gt;&lt;span style=&quot;color: rgb(31 , 9 , 9) ; background-color: rgb(218 , 218 , 218)&quot;&gt;&lt;font face=&quot;Verdana&quot; style=&quot;font-size: 15px&quot;&gt;0x77E7B0BB&lt;/font&gt;&lt;/span&gt;&lt;/p&gt;" style="text;whiteSpace=wrap;html=1;fontSize=15;fontFamily=Helvetica;" parent="1" vertex="1">
          <mxGeometry x="467" y="-924" width="110" height="30" as="geometry" />
        </mxCell>
        <mxCell id="Ds2AMG7Ot5EiUc6jdNnv-43" value="Messagebox()" style="rounded=0;whiteSpace=wrap;html=1;fontFamily=Helvetica;fontSize=15;" parent="1" vertex="1">
          <mxGeometry x="570" y="-875" width="160" height="40" as="geometry" />
        </mxCell>
        <mxCell id="Ds2AMG7Ot5EiUc6jdNnv-44" value="" style="shape=flexArrow;endArrow=classic;html=1;rounded=0;fontFamily=Verdana;fontSize=20;endWidth=8;endSize=5.33;" parent="1" target="Ds2AMG7Ot5EiUc6jdNnv-43" edge="1">
          <mxGeometry width="50" height="50" relative="1" as="geometry">
            <mxPoint x="537" y="-854" as="sourcePoint" />
            <mxPoint x="607" y="-894" as="targetPoint" />
          </mxGeometry>
        </mxCell>
        <mxCell id="Ds2AMG7Ot5EiUc6jdNnv-48" value="" style="endArrow=classic;html=1;rounded=0;fontFamily=Verdana;fontSize=20;entryX=0.509;entryY=1.217;entryDx=0;entryDy=0;entryPerimeter=0;" parent="1" target="Ds2AMG7Ot5EiUc6jdNnv-31" edge="1">
          <mxGeometry width="50" height="50" relative="1" as="geometry">
            <mxPoint x="567" y="-974" as="sourcePoint" />
            <mxPoint x="607" y="-984" as="targetPoint" />
            <Array as="points">
              <mxPoint x="517" y="-974" />
            </Array>
          </mxGeometry>
        </mxCell>
        <mxCell id="Ds2AMG7Ot5EiUc6jdNnv-49" value="" style="endArrow=classic;html=1;rounded=0;fontFamily=Verdana;fontSize=20;exitX=0;exitY=0.25;exitDx=0;exitDy=0;" parent="1" source="Ds2AMG7Ot5EiUc6jdNnv-26" edge="1">
          <mxGeometry width="50" height="50" relative="1" as="geometry">
            <mxPoint x="557" y="-934" as="sourcePoint" />
            <mxPoint x="517" y="-1074" as="targetPoint" />
            <Array as="points">
              <mxPoint x="517" y="-1024" />
            </Array>
          </mxGeometry>
        </mxCell>
        <mxCell id="hJTYhyOhBsykJKmkeD5q-1" value="" style="verticalLabelPosition=bottom;sketch=0;aspect=fixed;html=1;verticalAlign=top;strokeColor=none;align=center;outlineConnect=0;shape=mxgraph.citrix.laptop_1;" vertex="1" parent="1">
          <mxGeometry x="61" y="-324" width="91" height="77" as="geometry" />
        </mxCell>
        <mxCell id="hJTYhyOhBsykJKmkeD5q-4" value="" style="verticalLabelPosition=bottom;sketch=0;aspect=fixed;html=1;verticalAlign=top;strokeColor=none;align=center;outlineConnect=0;shape=mxgraph.citrix.laptop_1;" vertex="1" parent="1">
          <mxGeometry x="581.87" y="-335" width="86.27" height="73" as="geometry" />
        </mxCell>
        <mxCell id="hJTYhyOhBsykJKmkeD5q-6" value="攻击者：Kali&lt;br&gt;公网IP：10.122.194.81" style="text;html=1;align=center;verticalAlign=middle;resizable=0;points=[];autosize=1;strokeColor=none;fillColor=none;" vertex="1" parent="1">
          <mxGeometry x="51" y="-352" width="140" height="30" as="geometry" />
        </mxCell>
        <mxCell id="hJTYhyOhBsykJKmkeD5q-8" value="蜜罐主机：Ubuntu&lt;br&gt;IP：192.168.6.129" style="text;html=1;align=center;verticalAlign=middle;resizable=0;points=[];autosize=1;strokeColor=none;fillColor=none;" vertex="1" parent="1">
          <mxGeometry x="574" y="-510" width="120" height="30" as="geometry" />
        </mxCell>
        <mxCell id="hJTYhyOhBsykJKmkeD5q-10" value="Web靶场：Ubuntu&lt;br&gt;IP：192.168.6.130" style="text;html=1;align=center;verticalAlign=middle;resizable=0;points=[];autosize=1;strokeColor=none;fillColor=none;" vertex="1" parent="1">
          <mxGeometry x="574" y="-365" width="120" height="30" as="geometry" />
        </mxCell>
        <mxCell id="hJTYhyOhBsykJKmkeD5q-12" value="存在漏洞的主机：XP&lt;br&gt;IP：192.168.6.131" style="text;html=1;align=center;verticalAlign=middle;resizable=0;points=[];autosize=1;strokeColor=none;fillColor=none;" vertex="1" parent="1">
          <mxGeometry x="577" y="-235" width="130" height="30" as="geometry" />
        </mxCell>
        <mxCell id="hJTYhyOhBsykJKmkeD5q-14" value="" style="verticalLabelPosition=bottom;sketch=0;aspect=fixed;html=1;verticalAlign=top;strokeColor=none;align=center;outlineConnect=0;shape=mxgraph.citrix.laptop_1;" vertex="1" parent="1">
          <mxGeometry x="582.86" y="-480" width="86.27" height="73" as="geometry" />
        </mxCell>
        <mxCell id="hJTYhyOhBsykJKmkeD5q-15" value="" style="verticalLabelPosition=bottom;sketch=0;aspect=fixed;html=1;verticalAlign=top;strokeColor=none;align=center;outlineConnect=0;shape=mxgraph.citrix.laptop_1;" vertex="1" parent="1">
          <mxGeometry x="588.87" y="-195" width="86.27" height="73" as="geometry" />
        </mxCell>
        <mxCell id="hJTYhyOhBsykJKmkeD5q-16" value="网关&amp;amp;入侵检测：Kali&lt;br&gt;内网IP：192.168.6.100&lt;br&gt;公网IP：10.122.193.60" style="text;html=1;align=center;verticalAlign=middle;resizable=0;points=[];autosize=1;strokeColor=none;fillColor=none;" vertex="1" parent="1">
          <mxGeometry x="400" y="-245" width="140" height="50" as="geometry" />
        </mxCell>
        <mxCell id="hJTYhyOhBsykJKmkeD5q-17" value="" style="verticalLabelPosition=bottom;sketch=0;aspect=fixed;html=1;verticalAlign=top;strokeColor=none;align=center;outlineConnect=0;shape=mxgraph.citrix.laptop_1;" vertex="1" parent="1">
          <mxGeometry x="420" y="-323" width="86.27" height="73" as="geometry" />
        </mxCell>
        <mxCell id="hJTYhyOhBsykJKmkeD5q-18" value="" style="verticalLabelPosition=bottom;sketch=0;aspect=fixed;html=1;verticalAlign=top;strokeColor=none;align=center;outlineConnect=0;shape=mxgraph.citrix.laptop_1;" vertex="1" parent="1">
          <mxGeometry x="701" y="-480" width="86.27" height="73" as="geometry" />
        </mxCell>
        <mxCell id="hJTYhyOhBsykJKmkeD5q-19" value="" style="verticalLabelPosition=bottom;sketch=0;aspect=fixed;html=1;verticalAlign=top;strokeColor=none;align=center;outlineConnect=0;shape=mxgraph.citrix.laptop_1;" vertex="1" parent="1">
          <mxGeometry x="701" y="-335" width="86.27" height="73" as="geometry" />
        </mxCell>
        <mxCell id="hJTYhyOhBsykJKmkeD5q-20" value="" style="verticalLabelPosition=bottom;sketch=0;aspect=fixed;html=1;verticalAlign=top;strokeColor=none;align=center;outlineConnect=0;shape=mxgraph.citrix.laptop_1;" vertex="1" parent="1">
          <mxGeometry x="701" y="-195" width="86.27" height="73" as="geometry" />
        </mxCell>
        <mxCell id="hJTYhyOhBsykJKmkeD5q-21" value="" style="verticalLabelPosition=bottom;sketch=0;aspect=fixed;html=1;verticalAlign=top;strokeColor=none;align=center;outlineConnect=0;shape=mxgraph.citrix.web_service;" vertex="1" parent="1">
          <mxGeometry x="630" y="-322" width="33" height="31.43" as="geometry" />
        </mxCell>
        <mxCell id="hJTYhyOhBsykJKmkeD5q-22" value="" style="verticalLabelPosition=bottom;sketch=0;aspect=fixed;html=1;verticalAlign=top;strokeColor=none;align=center;outlineConnect=0;shape=mxgraph.citrix.cloud;" vertex="1" parent="1">
          <mxGeometry x="250" y="-315" width="95" height="62" as="geometry" />
        </mxCell>
        <mxCell id="hJTYhyOhBsykJKmkeD5q-23" value="" style="endArrow=none;html=1;rounded=0;" edge="1" parent="1" source="hJTYhyOhBsykJKmkeD5q-1" target="hJTYhyOhBsykJKmkeD5q-22">
          <mxGeometry width="50" height="50" relative="1" as="geometry">
            <mxPoint x="410" y="-480" as="sourcePoint" />
            <mxPoint x="460" y="-530" as="targetPoint" />
          </mxGeometry>
        </mxCell>
        <mxCell id="hJTYhyOhBsykJKmkeD5q-27" value="" style="endArrow=none;html=1;rounded=0;" edge="1" parent="1">
          <mxGeometry width="50" height="50" relative="1" as="geometry">
            <mxPoint x="345" y="-286" as="sourcePoint" />
            <mxPoint x="462" y="-286" as="targetPoint" />
          </mxGeometry>
        </mxCell>
        <mxCell id="hJTYhyOhBsykJKmkeD5q-33" value="" style="endArrow=none;html=1;rounded=0;" edge="1" parent="1" target="hJTYhyOhBsykJKmkeD5q-17">
          <mxGeometry width="50" height="50" relative="1" as="geometry">
            <mxPoint x="585" y="-443" as="sourcePoint" />
            <mxPoint x="511.27" y="-287.2448627180107" as="targetPoint" />
            <Array as="points">
              <mxPoint x="625" y="-443" />
              <mxPoint x="555" y="-443" />
              <mxPoint x="555" y="-288" />
            </Array>
          </mxGeometry>
        </mxCell>
        <mxCell id="hJTYhyOhBsykJKmkeD5q-40" value="" style="endArrow=none;html=1;rounded=0;" edge="1" parent="1">
          <mxGeometry width="50" height="50" relative="1" as="geometry">
            <mxPoint x="555" y="-288" as="sourcePoint" />
            <mxPoint x="615" y="-288" as="targetPoint" />
          </mxGeometry>
        </mxCell>
        <mxCell id="hJTYhyOhBsykJKmkeD5q-41" value="" style="endArrow=none;html=1;rounded=0;" edge="1" parent="1">
          <mxGeometry width="50" height="50" relative="1" as="geometry">
            <mxPoint x="555" y="-287" as="sourcePoint" />
            <mxPoint x="600" y="-165" as="targetPoint" />
            <Array as="points">
              <mxPoint x="555" y="-165" />
              <mxPoint x="630" y="-165" />
            </Array>
          </mxGeometry>
        </mxCell>
        <mxCell id="hJTYhyOhBsykJKmkeD5q-43" value="虚拟主机" style="text;html=1;align=center;verticalAlign=middle;resizable=0;points=[];autosize=1;strokeColor=none;fillColor=none;" vertex="1" parent="1">
          <mxGeometry x="730" y="-510" width="60" height="20" as="geometry" />
        </mxCell>
        <mxCell id="hJTYhyOhBsykJKmkeD5q-44" value="&lt;font style=&quot;font-size: 14px&quot;&gt;Internet&lt;/font&gt;" style="text;html=1;align=center;verticalAlign=middle;resizable=0;points=[];autosize=1;strokeColor=none;fillColor=none;" vertex="1" parent="1">
          <mxGeometry x="270" y="-294" width="60" height="20" as="geometry" />
        </mxCell>
        <mxCell id="hJTYhyOhBsykJKmkeD5q-45" value="" style="rounded=0;whiteSpace=wrap;html=1;fontSize=14;" vertex="1" parent="1">
          <mxGeometry x="120" y="-600" width="240" height="186.5" as="geometry" />
        </mxCell>
      </root>
    </mxGraphModel>
  </diagram>
</mxfile>
